<?xml version="1.0" standalone="no"?>
<!DOCTYPE svg PUBLIC "-//W3C//DTD SVG 1.1//EN" "http://www.w3.org/Graphics/SVG/1.1/DTD/svg11.dtd" >
<svg xmlns="http://www.w3.org/2000/svg">
<metadata>
<json>
<![CDATA[
{
	"fontFamily": "z-icon",
	"description": "Font generated by IcoMoon.",
	"majorVersion": 1,
	"minorVersion": 0,
	"version": "Version 1.0",
	"fontId": "z-icon",
	"psName": "z-icon",
	"subFamily": "Regular",
	"fullName": "z-icon"
}
]]>
</json>
</metadata>
<defs>
<font id="z-icon" horiz-adv-x="1024">
<font-face units-per-em="1024" ascent="896" descent="-128" />
<missing-glyph horiz-adv-x="1024" />
<glyph unicode="&#x20;" horiz-adv-x="0" d="" />
<glyph unicode="&#xe600;" glyph-name="maipan" data-tags="maipan" d="M912 896v-64h-704l-6-1q-11-2-18.5-10.5t-7.5-20.5v-928h-64v937q4 37 31.5 62t64.5 25h704zM912-32v-64h-640v64h640zM912 160v-64h-640v64h640zM912 384v-64h-640v64h640zM855 736l50-40-150-188-99 99-96-96-77 77h-211v64h237l51-51 96 96 93-93z" />
<glyph unicode="&#xe601;" glyph-name="maipan1" data-tags="maipan1" d="M176 896v-928q0-12 7.5-20.5t18.5-10.5l6-1h704v-64h-704q-37 0-64.5 25t-31.5 62v937h64zM755 260l150-188-50-40-106 132-93-93-96 96-51-51h-237v64h211l77 77 96-96zM912 416v-64h-640v64h640zM912 640v-64h-640v64h640zM912 864v-64h-640v64h640z" />
<glyph unicode="&#xe602;" glyph-name="maimaipan" data-tags="maimaipan" d="M176 896v-384q0-12 7.5-20.5t18.5-10.5l6-1h704v-64h-704q-37 0-64.5 25t-31.5 62v393h64zM739 752l150-188-50-40-106 132-93-93-96 96-51-51h-237v64h211l77 77 96-96zM896 864v-64h-640v64h640zM912 352v-64h-704l-6-1q-11-2-18.5-10.5t-7.5-20.5v-384h-64v393q4 37 31.5 62t64.5 25h704zM896-32v-64h-640v64h640zM839 244l50-40-150-188-99 99-96-96-77 77h-211v64h237l51-51 96 96 93-93z" />
<glyph unicode="&#xe603;" glyph-name="pie-chart" data-tags="pie-chart" d="M512-128q-58 0-115 13l-21 5q-118 33-209 115l-1 1q-21 20-40 41-22 26-40.5 53.5t-32.5 56.5q-53 107-53 227 0 60 14 118l2 8q27 110 100 198l16 19 20 21q47 47 104 80 103 59 222 67l17 1h17v-512h512v-17q-1-32-6-63-13-81-50.5-153.5t-95.5-130.5q-23-23-48-42-27-21-57-38-15-9-32-17l-26-12 10 5-15-7q-92-37-192-37zM955 320h-460l-241-302 2-2q24-16 48-29 37-19 77-32l-1 1 10-3-9 2 18-5-5 2q58-16 118-16 35 0 69 5v0l20 4q18 4 35 9 30 8 58 20l-8-3 12 5-4-2 7 4-3-2q100 46 168 133 17 22 31.5 46t25.5 50 19 53l-1-2q8 26 13 52zM448 827l-6-1v1l-6-1q-48-9-93-27l-4-2q-90-37-156-109l4 5-7-8 3 3-8-9 5 6-7-8 2 2q-8-9-15-18-17-22-31.5-46t-26-50-20.5-53v-1q-18-62-18-127 0-49 11-97 6-28 15-54 36-99 112-172l-2 2 4-5 244 305v464zM1012 495q7-31 10-63l-64-6q-3 28-9 55zM972 610q14-29 24-59l-60-21q-9 26-22 52zM898 721q21-25 39-51l-53-36q-16 23-34 44zM800 807q26-18 50-39l-42-48q-21 19-44 34zM687 865q30-11 58-25l-29-57q-25 13-51 22zM560 894q32-3 63-10l-14-63q-27 7-55 9z" />
<glyph unicode="&#xe604;" glyph-name="minus" data-tags="minus" d="M0 456h1024v-149h-1024v149z" />
<glyph unicode="&#xe607;" glyph-name="list" data-tags="list" d="M819 576h-352q-7 0-11.5 4.5t-4.5 11.5v96q0 7 4.5 11.5t11.5 4.5h352q6 0 11-4.5t5-11.5v-96q0-7-5-11.5t-11-4.5zM819 320h-352q-7 0-11.5 4.5t-4.5 11.5v96q0 7 4.5 11.5t11.5 4.5h352q6 0 11-4.5t5-11.5v-96q0-7-5-11.5t-11-4.5zM819 64h-352q-7 0-11.5 4.5t-4.5 11.5v96q0 7 4.5 11.5t11.5 4.5h352q6 0 11-4.5t5-11.5v-96q0-7-5-11.5t-11-4.5zM307 576h-96q-7 0-11.5 4.5t-4.5 11.5v96q0 7 4.5 11.5t11.5 4.5h96q6 0 11-4.5t5-11.5v-96q0-7-5-11.5t-11-4.5zM307 320h-96q-7 0-11.5 4.5t-4.5 11.5v96q0 7 4.5 11.5t11.5 4.5h96q6 0 11-4.5t5-11.5v-96q0-7-5-11.5t-11-4.5zM307 64h-96q-7 0-11.5 4.5t-4.5 11.5v96q0 7 4.5 11.5t11.5 4.5h96q6 0 11-4.5t5-11.5v-96q0-7-5-11.5t-11-4.5zM67 816v-864q0-33 23-56.5t57-23.5h736q33 0 56.5 23.5t23.5 56.5v864q0 33-23.5 56.5t-56.5 23.5h-736q-34 0-57-23.5t-23-56.5z" />
<glyph unicode="&#xe609;" glyph-name="mixin" data-tags="mixin" d="M841 696l160 70q6 3 12 0.5t9-8.5q0-1 1-3.5t1-3.5v-774q0-6-4.5-10.5t-9.5-4.5-9 2l-163 88q-10 5-16.5 15.5t-6.5 22.5v568q0 12 7 22.5t19 15.5zM183 696l-160 70q-6 3-12 0.5t-9-8.5q0-1-1-3.5t-1-3.5v-774q0-6 4.5-10.5t9.5-4.5 9 2l163 88q10 5 16.5 15.5t6.5 22.5v568q0 12-7 22.5t-19 15.5zM533 572l165-96q21-14 21-36v-190q0-11-6-21t-15-15l-165-96q-9-7-21-7t-21 7l-165 96q-21 14-21 36v190q0 11 6 21t15 15l165 96q9 5 21 5t21-5z" />
<glyph unicode="&#xe60a;" glyph-name="telegram" data-tags="telegram" d="M385-25l16 261 436 426q10 9 7.5 15t-13.5 5-23-9l-539-368-233 80q-24 7-32.5 21t3 30 41.5 29l907 379q21 10 39 3.5t26-28.5 0-55l-154-789q-8-41-30.5-52t-54.5 9l-236 188-113-119q-12-13-19-18-12-8-28-8z" />
<glyph unicode="&#xe60b;" glyph-name="twitter" data-tags="twitter" d="M920 577q0 15-1 29 62 47 105 114-58-27-121-34 33 21 57 52.5t36 69.5q-63-38-134-52-29 34-68.5 53.5t-84.5 19.5q-57 1-105.5-28.5t-76.5-80.5-28-112q0-26 5-51-129 8-243 73-111 63-190 169-28-53-28-114 0-58 25-108t68-82q-50 3-95 30v-3q0-54 22-101.5t60.5-79.5 86.5-43q-27-8-56-7-20 0-39 4 20-68 74-112.5t122-45.5q-55-46-120-71-68-25-141-25-24 0-50 3 71-49 151-75 84-27 171-27 139 0 257 58 107 53 187 149 74 90 115 204 39 111 39 224z" />
<glyph unicode="&#xe60d;" glyph-name="Instagram" data-tags="Instagram" d="M512 555q-46 0-85.5-23t-62.5-62.5-23-85.5 23-85.5 62.5-62.5 85.5-23 85.5 23 62.5 62.5 23 85.5-23 85.5-62.5 62.5-85.5 23zM1024 384v26q0 123-3 185-4 68-21 116-20 57-62 99t-99 62q-48 17-116 21-62 3-185 3h-52q-123 0-185-3-68-4-116-21-57-20-99-62t-62-99q-17-48-21-116-3-62-3-185v-52q0-123 3-185 4-68 21-116 20-57 62-99t99-62q48-17 116-21 62-3 185-3h52q123 0 185 3 68 4 116 21 57 20 99 62t62 99q17 48 21 116 3 61 3 182v29zM512 121q-72 0-132 35.5t-95.5 95.5-35.5 132 35.5 132 95.5 95.5 131.5 35.5 132-35.5 96-95.5 35.5-132-35.5-132-96-95.5-131.5-35.5zM785 596q-25 0-43 18t-18 43.5 18 43.5 43.5 18 43.5-18 18-43.5-18-43.5-44-18z" />
<glyph unicode="&#xe612;" glyph-name="sidebar" data-tags="sidebar" d="M998 0q11 0 18.5-7.5t7.5-18.5v-76q0-11-7.5-18.5t-18.5-7.5h-972q-11 0-18.5 7.5t-7.5 18.5v76q0 11 7.5 18.5t18.5 7.5h972zM0 512l192-128-192-128v256zM998 448q11 0 18.5-7.5t7.5-18.5v-76q0-11-7.5-18.5t-18.5-7.5h-653q-10 0-17.5 7.5t-7.5 18.5v76q0 11 7.5 18.5t17.5 7.5h653zM998 896q11 0 18.5-7.5t7.5-18.5v-76q0-11-7.5-18.5t-18.5-7.5h-972q-11 0-18.5 7.5t-7.5 18.5v76q0 11 7.5 18.5t18.5 7.5h972z" />
<glyph unicode="&#xe615;" glyph-name="speaker" data-tags="speaker" d="M714 766l-437-186h-174v-387h175l436-186v759zM760 891q16 8 31.5 0t21.5-27q3-8 3-18v-920q0-20-12-34.5t-29-14.5q-8 0-15 4l-504 215h-214q-17 0-29 14.5t-12 34.5v484q0 20 12 34t29 14h214zM918 629h102v-484h-102v484z" />
<glyph unicode="&#xe616;" glyph-name="skype" data-tags="skype" d="M988 300q8 44 8 88 0 98-38 188-37 86-103.5 153t-154.5 104q-89 38-188 38-46 0-91-9-63 34-135 34-57 0-109.5-21.5t-93-62-62-93-21.5-109.5q0-74 36-139-7-42-7-83 0-99 38-189 36-86 103-153t154-104q90-38 188-38 43 0 85 8 66-37 141-37 57 0 109.5 21.5t93 62 62 92.5 21.5 110q0 74-36 139zM514 91q-80 0-141 25-52 21-81 57-26 32-26 66 0 24 16 39.5t41 15.5q20 0 36-12 10-7 26-28t26-30q18-17 40-25 27-10 63-10 34 0 60 11 23 10 36 28t13 38-11 35q-15 18-47 26l-152 38q-84 21-119 68-27 36-27 92 0 61 36 104 32 38 89 57 51 17 112 17 54 0 107.5-18t86.5-48q37-33 37-70 0-24-18-38.5t-44-14.5q-18 0-32 10-8 6-23 23t-25 25q-17 13-38 21-25 8-60 8-46 0-71.5-19t-25.5-50q0-27 30-43 19-10 62-20l113-25q86-19 125-69 31-40 31-99 0-54-27.5-95.5t-81.5-64.5q-56-25-136-25z" />
<glyph unicode="&#xe617;" glyph-name="heart" data-tags="heart" horiz-adv-x="1194" d="M876 894q-77 8-150.5-17.5t-128.5-79.5q-56 54-129 79.5t-151 17.5q-84-8-158-60-72-50-115-127-44-80-44-166 0-34 8-72h234l43 150q3 13 13 21.5t23 10 25-4 19-17.5l157-278 72 218q4 12 14 20.5t22.5 9.5 24-4.5 18.5-16.5l64-108h150q18 0 31-13t13-31-13-31-31-13h-174q-12 0-22 5.5t-16 15.5l-28 48-73-221q-4-12-14-20t-23-9.5-24.5 4.5-18.5 17l-154 273-23-81q-4-14-15.5-23t-26.5-9h-237l4-11q75-140 182-256.5t240-202.5q61-39 133-39t133 39q133 86 240 202.5t181 256.5q43 79 43 170-1 86-45 165-42 78-114 128-74 52-159 60z" />
<glyph unicode="&#xe61b;" glyph-name="star" data-tags="star" horiz-adv-x="1092" d="M210-118q-13 9-18 24.5t0 30.5l105 319-276 197q-13 9-18.5 24.5t0 31 18.5 25 30 9.5h341l106 319q5 15 18.5 24.5t30 9.5 29.5-9.5 18-24.5l106-319h341q17 0 30.5-9.5t18.5-25 0-31-19-24.5l-276-197 106-319q5-15-0.5-30.5t-18.5-25-29.5-9.5-30.5 10l-276 196-276-196q-14-10-30-10t-30 10z" />
<glyph unicode="&#xe61c;" glyph-name="contract" data-tags="contract" d="M765 242q48-1 88-25.5t63.5-65 23.5-88.5-23.5-88.5-63.5-65-88-25-89.5 23.5-65.5 65-24 90 24 90 65.5 65 89.5 24zM653 851q34 0 61-24l158-162q10-10 18-28.5t10-32.5v-344q-61 41-135 41-65 0-119.5-32t-86.5-86.5-32-119.5q0-38 11.5-73.5t32.5-65.5h-386q-31 0-52 21.5t-21 51.5v781q0 30 21 51.5t50 21.5h470zM780 163q-4 8-14 8t-15-8l-23-45q-7-9-12-9l-50-8q-11-1-14-10t4-17l37-35q3-3 4.5-7.5t0.5-7.5l-8-50q-1-11 7-17t17-1l45 24q7 5 15 0l44-24q9-3 17 2.5t7 15.5l-8 50q0 10 5 15l36 34q7 7 4 16.5t-13 10.5l-50 8q-8 2-13 10zM424 369h-142q-21 0-35.5-14.5t-14.5-35 14.5-35 35.5-14.5h142q20 0 34.5 14.5t14.5 35-14.5 35-34.5 14.5zM665 610h-383q-21 0-35.5-14.5t-14.5-35 14.5-35 35.5-14.5h383q20 0 34.5 14.5t14.5 35-14.5 35-34.5 14.5z" />
<glyph unicode="&#xe61d;" glyph-name="visible" data-tags="visible" d="M512 707q108 0 208-38 98-37 174.5-106t120.5-159l9-20-9-20q-44-91-120.5-159.5t-174.5-105.5q-100-38-208-38t-208 38q-98 37-174.5 105.5t-120.5 159.5l-9 20 9 20q44 90 120.5 159t174.5 106q100 38 208 38zM522 614q60-2 111-33.5t80-83.5 29-114-31-115-83.5-84-115.5-31q126 0 233.5 58.5t166.5 157.5l9 15-9 15q-57 94-157.5 152t-220.5 63h-12zM512 614q-126 0-233.5-58t-166.5-157l-9-15 9-15q57-95 157.5-152.5t220.5-62.5h12q-60 2-110.5 33.5t-80 83.5-29.5 114 31 114.5 83.5 83.5 115.5 31v0zM512 522q-38 0-69.5-18.5t-50-50.5-18.5-69.5 18.5-69 50-50 69.5-18.5 69.5 18.5 50 50 18.5 69-18.5 69.5-50 50.5-69.5 18.5z" />
<glyph unicode="&#xe61e;" glyph-name="invisible" data-tags="invisible" d="M939 603l85-42q-25-56-63-105l60-93-78-55-48 76q-60-55-133-90l29-91-89-31-28 88q-56-17-115-21v-101h-94v101q-81 6-158 35l-32-102-89 31 35 113q-49 29-92 68l-48-76-78 55 60 93q-31 40-53 84l-10 21 85 42q36-80 101-140.5t149-94 177-33.5q89 0 170.5 31t145.5 87.5 102 130.5z" />
<glyph unicode="&#xe61f;" glyph-name="home" data-tags="home" horiz-adv-x="1216" d="M634 887q-12 9-26.5 9t-25.5-9l-535-441q-12-10-14.5-26t6.5-30q12-18 35-18h149v-458q0-17 12.5-29.5t29.5-12.5h190q17 0 29 12.5t12 29.5v167q0 30 15 56t41 41.5 56 15.5 55.5-15.5 40.5-41.5 15-56v-167q0-17 12.5-29.5t29.5-12.5h190q17 0 29 12.5t12 29.5v458h151q16 0 28 11.5t13 28.5q1 22-17 35z" />
<glyph unicode="&#xe622;" glyph-name="mistake" data-tags="mistake" d="M512 896q104 0 199-40 92-39 163-110t110-163q40-95 40-199t-40-199q-39-92-110-163t-163-110q-95-40-199-40t-199 40q-92 39-163 110t-110 163q-40 95-40 199t40 199q39 92 110 163t163 110q95 40 199 40zM707 690l-195-195-195 195-111-111 195-195-195-195 111-111 195 195 195-195 111 111-195 195 195 195z" />
<glyph unicode="&#xe627;" glyph-name="copy" data-tags="copy" d="M465 477q-19 0-32.5-13.5t-13.5-32.5v-419q0-20 13.5-33.5t32.5-13.5h419q20 0 33.5 13.5t13.5 33.5v419q0 19-13.5 32.5t-33.5 13.5h-419zM884 570q38 0 70-18.5t51-51 19-69.5v-419q0-38-19-70t-51-51-70-19h-419q-37 0-69.5 19t-51 51-18.5 70v419q0 37 18.5 69.5t51 51 69.5 18.5h419zM559 896q27 0 53-10.5t45.5-30.5 30-45.5 10.5-53.5v-93h-93v93q0 20-13.5 33.5t-32.5 13.5h-419q-20 0-33.5-13.5t-13.5-33.5v-419q0-19 13.5-32.5t33.5-13.5h93v-93h-93q-28 0-53.5 10.5t-45.5 30-30.5 45.5-10.5 53v419q0 28 10.5 53.5t30.5 45.5 45.5 30.5 53.5 10.5h419z" />
<glyph unicode="&#xe629;" glyph-name="question" data-tags="question" d="M512 896q-104 0-199-40-92-39-163-110t-110-163q-40-95-40-199t40-199q39-92 110-163t163-110q95-40 199-40t199 40q92 39 163 110t110 163q40 95 40 199t-40 199q-39 92-110 163t-163 110q-95 40-199 40zM562 91h-126v117h126v-117zM545 293v-20h-102v28q-3 79 66 128 64 51 61 92-5 54-58 59-72 0-90-95l-115 26q31 174 222 168 159-7 172-143 5-82-92-148-72-49-64-95z" />
<glyph unicode="&#xe62a;" glyph-name="edit" data-tags="edit" d="M110-5h804q19 0 32.5-12t13.5-29-13.5-29-32.5-12h-804q-19 0-32.5 12t-13.5 29 13.5 29 32.5 12v0zM544 641l-338-338v-142h142l338 338zM602 699l142-142 58 58-142 142zM137 351l491 490q13 14 32 14t32-14l194-193q14-14 14-33t-14-32l-491-491q-13-13-32-13h-194q-19 0-32.5 13t-13.5 32v194q0 19 14 32v1z" />
<glyph unicode="&#xe62c;" glyph-name="share" data-tags="share" horiz-adv-x="1194" d="M552 802q6-7 6-16v-59q0-9-6.5-15.5t-15.5-6.5h-325q-14 0-25-9t-13-22l-1-7v-644q0-14 9-25t23-13l7-1h695q14 0 25 9t13 23l1 7v197q0 9 6 15.5t15 6.5h60q9 0 15.5-6.5t5.5-15.5v-248q0-35-23-60.5t-57-29.5l-10-1h-798q-34 0-60 23.5t-29 57.5l-1 9v747q0 35 23 60.5t57 29.5h387q9 0 16-6zM830 871q13 14 31.5 15.5t33.5-9.5l8-6 207-207q15-15 15-36.5t-15-36.5l-3-3-4-2-200-201q-14-13-34-14t-35 11.5-18 32 9 36.5l6 7 139 139q-106 5-215-44-106-48-189-134-85-88-125-195l-4-9q-1-5-5-7.5t-9-2.5q-11 0-21 4l-42 16q-15 6-22 22 42 124 128 225 85 99 198 158 116 61 241 70l22 1-97 98q-15 15-15 36t15 36z" />
<glyph unicode="&#xe62e;" glyph-name="filter" data-tags="filter" horiz-adv-x="1210" d="M1210 896l-419-540v-297l-371-187v484l-420 540h1210zM1024 803h-838l326-395v-378l187 90v288z" />
<glyph unicode="&#xe630;" glyph-name="3x" data-tags="3x" horiz-adv-x="1177" d="M981 896q48 0 75-5 22-5 43-15 38-21 58-59l5-9q8-18 12-40 4-26 4-69v-630q0-48-6-76-4-22-15-42-20-38-58-58l-9-5q-18-8-41-12-25-4-68-4h-784q-48 0-76 5-22 5-42 15-38 21-59 59l-4 9q-8 17-11 37-4 23-5 60v642q0 48 5 76 5 22 15 42 21 38 59 59l9 4q17 8 37 11 23 4 60 5h796zM991 819h-822q-21-1-32.5-3.5t-21.5-7.5q-18-9-27-27-6-11-8.5-26t-2.5-46v-668q1-21 3.5-32.5t7.5-21.5q10-18 27-27 12-6 28.5-8.5t53.5-2.5h784q37 0 53 2.5t29 8.5q17 10 26 27 7 12 9.5 28.5t2.5 53.5v630q0 37-2.5 53.5t-9.5 28.5q-9 18-26 27-12 6-26.5 8.5t-45.5 2.5zM369 589q39 0 69.5-16t47.5-44.5 17-65.5q0-62-51-89 26-14 40-36 17-27 17-64 0-62-41-98-38-32-97.5-32t-96.5 30q-43 35-43 99h79q1-28 18-42.5t43-14.5 42 16 16 44-16 44.5-45 16.5h-12v69h12q27 0 41 15.5t14 41-15.5 40-38 14.5-37.5-14-17-39h-79q1 57 39 91t94 34zM715 585l76-141 77 141h97l-128-213 137-224h-98l-85 152-84-152h-97l135 224-127 213h97z" />
<glyph unicode="&#xe631;" glyph-name="plus" data-tags="plus" d="M585 896v-439h439v-146h-439v-439h-146v439h-439v146h439v439h146z" />
<glyph unicode="&#xe635;" glyph-name="success" data-tags="success" d="M512 896q104 0 199-40 92-39 163-110t110-163q40-95 40-199t-40-199q-39-92-110-163t-163-110q-95-40-199-40t-199 40q-92 39-163 110t-110 163q-40 95-40 199t40 199q39 92 110 163t163 110q95 40 199 40zM768 545q-12 12-31.5 12t-31.5-12l-240-240-138 138q-12 12-31.5 12t-31.5-12-12-31.5 12-31.5l169-169q12-12 31.5-12t31.5 12l272 271q15 12 15 32t-15 31z" />
<glyph unicode="&#xe638;" glyph-name="trend-up" data-tags="trend-up" horiz-adv-x="1194" d="M1195-18v804q0 30-17.5 55t-47 40-63.5 15h-939q-35 0-64.5-15t-46.5-40-17-55v-804q0-30 17-55t46.5-40 64.5-15h939q34 0 63.5 15t47 40 17.5 55zM1067 811q17 0 29.5-10.5t12.5-25.5v-782q0-15-12.5-25.5t-29.5-10.5h-939q-18 0-30.5 10.5t-12.5 25.5v782q0 15 12.5 25.5t30.5 10.5h939zM890 575h-188q-16 0-27.5-11t-11.5-27 11.5-27 27.5-11h110l-197-207-115 153q-13 17-34.5 19t-37.5-14l-239-238q-12-12-12-27.5t11.5-27 27-11.5 26.5 12l217 215 115-154q12-16 31.5-18.5t35.5 9.5l6 5 210 221v-83q0-15 11-26.5t27-11.5 27 11.5 11 26.5v179q0 18-12.5 30.5t-30.5 12.5z" />
<glyph unicode="&#xe639;" glyph-name="investment" data-tags="investment" horiz-adv-x="1194" d="M139 814q60 33 137 50t162 17q154 0 284-62 61-32 99-72 43-47 50-102 4-18-8.5-36t-31-21.5-37.5 8.5-22 30q-4 27-28 53-26 28-72 49.5t-106 33.5q-64 14-133 14-72 0-139-17-63-15-110-41-42-17-65-45-19-24-19-52 0-23 13-45 15-26 46-46 64-46 174-68 21-3 32.5-20t7.5-37-21.5-31.5-37.5-7.5q-120 23-199 72l-1-2q-1-3-5-3l-3-8q-6-19-6-30 0-23 13-44 14-23 46-48 64-46 174-67 21-4 32.5-21t7.5-37-21.5-31-37.5-7q-128 23-205 77-9-18-9-39 0-52 79-101 42-26 99-42 60-17 125-21 18 0 31.5-14.5t13.5-33.5q0-21-16-34t-39-9q-77 3-147 24-68 20-122 53-55 31-88 75-36 48-36 103 0 43 25 92l15 14q-20 27-29 52-11 28-11 59 0 43 25 91 6 14 20 20-45 43-45 115 0 59 40 111 36 47 99 82zM1195 323q0 51-36 96-31 40-83 68t-117.5 42.5-137.5 14.5-137-14.5-117-42.5-84-68q-35-45-35-96 0-25 9.5-49t25.5-43q-35-42-35-92.5t35-95.5q32-40 84-67 121-58 254-58 150 0 254 58 53 27 84 67 36 45 36 97 0 26-10 51-6 18-20 40 30 48 30 92zM1025 58q-36-22-89.5-33t-114.5-11q-57 0-113 13-51 11-91 31-35 20-53 42-16 20-16 40 0 8 1.5 12.5t7.5 11.5q54-30 121-46 70-17 143.5-17t142.5 17q68 16 121 46l4-7q6-10 6-17 0-20-16-40-18-22-54-42zM1065 270q-36-31-97-51-69-22-147-22-74 0-139 19-59 17-95 44l-10 10q-14 14-21.5 27.5t-7.5 25.5q0 19 16 39 18 22 54 43t89 32 114 11q57 0 114-13 51-11 90-31 36-20 54-42 16-20 16-39 0-12-7.5-25.5t-22.5-27.5z" />
<glyph unicode="&#xe63a;" glyph-name="download" data-tags="download" d="M79 579h317v317h237v-317h312l-433-471zM948 108v-77h-867v77h-81v-236h1024v236h-76z" />
<glyph unicode="&#xe63b;" glyph-name="bookmarks" data-tags="bookmarks" d="M888-61h-675q-36 0-62 25.5t-26 61.5 26 61.5 62 25.5h675v-174zM257 829h162q8 0 13.5-5.5t5.5-12.5v-319l-96 70-104-70v319q0 7 5.5 12.5t13.5 5.5zM926 896h-732q-35 0-65-17.5t-47.5-47-17.5-63.5v-768q0-35 17.5-64.5t47.5-46.5 65-17h732q14 0 24 10t10 24v956q0 14-10 24t-24 10z" />
<glyph unicode="&#xe63c;" glyph-name="facebook" data-tags="facebook" d="M590-124v361h118l18 143h-136v92q0 34 14 52t53 18h74v128q-40 6-106 6-81 0-129.5-49.5t-48.5-140.5v-105h-118v-143h118v-364q-125 15-228 88-101 70-159 179-60 113-60 242 0 104 40 199 39 92 109.5 163.5t162.5 110.5q95 40 199 40t199-40q92-39 162.5-110t109.5-163q40-96 40-200 0-127-58-237-55-108-154-179.5t-220-90.5z" />
<glyph unicode="&#xe63d;" glyph-name="weibo" data-tags="weibo" horiz-adv-x="1190" d="M589 580q-2-7-5-20-4-22-4-29 0-12 10-14t36 6l27 11q33 12 65 19 43 9 77 6 42-4 65-28 34-34 25-86-4-25-16-44v0q-6-7-5-14 0-15 29-21 23-4 49-18 34-19 56-46 28-33 32-76 5-50-23-111-39-82-135-143-86-54-201-81-111-25-213-17-111 9-197 35-109 33-173 93-76 72-87 178l-1 19q1 23 6 50 9 37 26 75 21 48 56 94l25 32q32 40 68 76 50 50 100 86 62 45 120 65 111 38 157-5 31-29 31-92zM473 407q-98-5-180-39t-129-88q-49-56-49-120.5t48-117 129-80.5q83-28 180-23.5t181 43.5q81 37 129 96.5t48 124-49 113.5q-46 47-128 71t-180 20zM608 76q-32-41-80-64t-103-22q-60 2-116 32-34 18-47 54-7 19-6 35l-1 20q0 24 5 48 8 33 24 59 20 32 53 53 39 24 95 31 71 8 121-18 43-22 65-67 19-40 16-85.5t-26-75.5zM379 175q-28-3-46.5-23t-18.5-44 20-38 48-10.5 47.5 22 19.5 42.5-19.5 39-50.5 12zM473 201q-9-7-11.5-18t3-19.5 15-10 19.5 5.5l1 1q9 7 12 18t-2 19.5-15.5 10-21.5-6.5zM833 896q97 0 180-49 81-47 129-128 49-84 49-180 0-27-5-54 0-5-1-9v-3q-5-18-21.5-28.5t-35.5-7-30.5 18.5-9.5 34v1h-1q5 24 5 48 0 70-35 129.5t-94.5 94-129.5 34.5q-13 0-24.5 6.5t-18.5 18-7 25 7 25 18.5 18 24.5 6.5zM841 730q53 0 98-26t71.5-71 26.5-97q0-6-1-17l-1-8q-2-15-13.5-25t-27.5-10-28 11.5-12 28.5l1 5h-1q1 7 1 15 0 31-15.5 57t-41.5 41-57 15q-17 0-29 12t-12 29 12 28.5 29 11.5z" />
<glyph unicode="&#xe63e;" glyph-name="caret-up" data-tags="Rectangle50" horiz-adv-x="2048" d="M1145 775q-24 24-55.5 37t-65.5 13-65.5-13-55.5-37l-612-612q-36-36-46-87t9.5-98.5 62.5-76.5 95-29h1224q52 0 95 29t62.5 76.5 9.5 98.5-46 87z" />
<glyph unicode="&#xe63f;" glyph-name="group" data-tags="group" horiz-adv-x="1256" d="M736 865q55-33 88-91t36-124q3-69-28-128-27-66-92-109 88-20 155-64 82-54 127-142 52-104 52-251 0-32-21.5-49t-72.5-25q-47-7-137-9-57-1-212.5-1t-212.5 1q-90 2-137 9-50 8-71.5 25t-21.5 49q0 145 53 249 45 88 126 143 68 46 156 65-60 32-94 92-33 57-36.5 125t25.5 130 84 98q52 35 115 37.5t119-30.5zM1093 690q10-46 0.5-92t-37-83-68.5-55q78-21 139.5-74.5t95-130.5 33.5-164q0-28-8-43.5t-27.5-22.5-56.5-9q-11 152-75 261-62 104-169 165l-22 11 9 17 8 18q43 82 36 178-7 93-59 172 44 6 86-11t72.5-53 42.5-84zM356 838v0q-11-16-19-34-40-86-34-179.5t55-169.5q-113-60-178-166-68-112-79-266-41 1-62 7.5t-30 22-9 45.5q-4 86 30 165 32 76 93.5 130t140.5 72q-46 23-74 65t-33.5 93.5 15.5 100.5q25 58 75 89.5t109 24.5z" />
<glyph unicode="&#xe640;" glyph-name="user" data-tags="user" d="M504 384q68 0 125 34.5t90.5 93 33.5 128.5-33.5 128.5-90.5 93-124.5 34.5-124.5-34.5-90.5-93-33.5-128.5 33.5-128.5 90.5-93 124-34.5zM616 297h-208q-87 0-162-45-73-44-115-118-44-77-44-166v-22q0-35 44-52 37-15 115-19 48-3 162-3h208q109 0 162 3 77 5 115 20 44 18 44 51v22q0 89-44 166-42 74-115 118-75 45-162 45z" />
<glyph unicode="&#xe641;" glyph-name="member-3" data-tags="member-3" horiz-adv-x="1137" d="M1127 622l-130 227q-12 21-35 34t-49 13h-688q-27 0-49.5-13t-35.5-34l-129-227q-12-22-10.5-47t16.5-46l434-599q28-38 73-51.5t90 0 73 51.5l434 599q15 21 16.5 46t-10.5 47zM810 335l-169-233q-13-17-32-27t-40.5-10-40.5 10-31 27l-170 233q-11 15-8 33.5t18.5 29.5 34 8 29.5-18l168-231 168 231q11 15 29.5 18t34-8 18.5-29.5-9-33.5z" />
<glyph unicode="&#xe642;" glyph-name="paste" data-tags="paste" d="M922 77h-103v-103q0-27-13.5-50.5t-37.5-37.5-51-14h-615q-27 0-50.5 14t-37.5 37.5-14 50.5v615q0 27 14 51t37.5 37.5 50.5 13.5h103v103q0 27 13.5 50.5t37.5 37.5 51 14h615q27 0 50.5-14t37.5-37.5 14-50.5v-615q0-27-14-51t-37.5-37.5-50.5-13.5zM154 589q-23 0-37.5-14t-14.5-37v-512q0-23 14.5-37.5t37.5-14.5h512q23 0 37 14.5t14 37.5v512q0 23-14 37t-37 14h-512zM922 742q0 23-14.5 37.5t-37.5 14.5h-512q-23 0-37-14.5t-14-37.5v-51h410q27 0 51-13.5t37.5-37.5 13.5-51v-410h51q23 0 37.5 14t14.5 37v512z" />
<glyph unicode="&#xe643;" glyph-name="caret-down" data-tags="Rectangle51" horiz-adv-x="2048" d="M903-7q24-24 55.5-37t65.5-13 65.5 13 55.5 37l612 612q36 36 46 87t-9.5 98.5-62.5 76.5-95 29h-1224q-52 0-95-29t-62.5-76.5-9.5-98.5 46-87z" />
<glyph unicode="&#xe645;" glyph-name="calendar" data-tags="calendar" d="M961 835h-150v-150q0-12-9-21t-21-9h-90q-13 0-21.5 9t-8.5 21v150h-300v-150q0-12-9-21t-21-9h-90q-13 0-21.5 9t-8.5 21v150h-150q-25 0-42.5-17.5t-17.5-42.5v-240h1020v240q0 25-17.5 42.5t-42.5 17.5zM301 895h-30q-13 0-21.5-8.5t-8.5-21.5v-150q0-12 8.5-21t21.5-9h30q12 0 21 9t9 21v150q0 13-9 21.5t-21 8.5zM751 895h-30q-13 0-21.5-8.5t-8.5-21.5v-150q0-12 8.5-21t21.5-9h30q12 0 21 9t9 21v150q0 13-9 21.5t-21 8.5zM1 475v-540q0-25 17.5-42.5t42.5-17.5h900q25 0 42.5 17.5t17.5 42.5v540h-1020zM387 59h-171v85h171v-85zM813 59h-341v85h341v-85zM811 213h-598v86h598v-86z" />
<glyph unicode="&#xe64d;" glyph-name="person" data-tags="person" d="M768 271q55 0 100.5-26.5t72.5-72.5 27-100v-29q0-46-23-85.5t-62.5-62.5-85.5-23h-570q-46 0-85.5 23t-62.5 62.5-23 85.5v29q0 39 15.5 76t43.5 65 64.5 43 76.5 15h512zM799 896v-284q0-77-39-144-38-64-102-102-66-38-143.5-38t-143.5 38q-64 38-102 102-39 67-39 144t39 143q38 65 102 102 66 39 144 39h284z" />
<glyph unicode="&#xe64e;" glyph-name="new" data-tags="new" d="M931 660q38 0 65.5-27t27.5-65v-279q0-38-27.5-65.5t-65.5-27.5h-764q-27 0-47-19l-65-65q-10-10-23-9.5t-22.5 9.5-9.5 23v433q0 38 27.5 65t65.5 27h838zM498 501q-51 0-73-29-9-12-13-29t-4-44v-13q0-54 21-76.5t69-22.5q34 0 55 9.5t34 32.5l-43 24q-7-12-16.5-17t-23.5-5q-38 0-38 43v5h122v20q0 54-21 78t-69 24zM197 573h-59v-282h59v181l100-181h59v282h-59v-180zM673 496h-59l60-205h50l36 119 37-119h49l60 205h-58l-30-136-37 136h-41l-38-136zM499 459q17 0 26-9.5t9-26.5v-5h-68v5q0 17 9 26.5t24 9.5z" />
<glyph unicode="&#xe650;" glyph-name="defi" data-tags="defi" d="M931 660q38 0 65.5-27t27.5-65v-279q0-38-27.5-65.5t-65.5-27.5h-764q-27 0-47-19l-65-65q-10-10-23-9.5t-22.5 9.5-9.5 23v433q0 38 27.5 65t65.5 27h838zM467 498q-52 0-73-28-9-12-13-28.5t-4-44.5v-12q0-53 20.5-75.5t68.5-22.5q35 0 55.5 9.5t33.5 31.5l-42 24q-8-12-17-16.5t-24-4.5q-38 0-38 42v5h122v19q0 54-20.5 77.5t-68.5 23.5zM123 570v-279h98q56-1 82.5 23.5t27.5 77.5v69q1 55-23.5 81.5t-77.5 27.5h-107zM782 570h-176v-279h61v115h96v49h-96v66h115v49zM876 494h-58v-203h58v203zM270 456v-51q-1-38-12-51.5t-41-14.5h-33v184h26q35 0 47-13.5t13-53.5zM468 457q16 0 25-9.5t9-26.5v-4h-68v4q0 17 9 26.5t25 9.5zM876 573h-58v-53h58v53z" />
<glyph unicode="&#xe651;" glyph-name="short-btc" data-tags="short-btc" d="M97 43v-98h854v98h-854zM298 495q84 48 179 48 93-1 173-47 83-47 131-130 35-60 44-129 10-66-6-130.5t-53-119.5h-96q45 44 67 102t17.5 121-36.5 119q-38 66-104 104-64 36-137 36-76 1-142-37t-103-104q-37-64-37-138-1-75 37-141 20-35 48-62h-95q-9 12-16 25-48 83-47 179 0 93 46 173 47 83 130 131zM458 38l99 58q21 11 31.5 21t15.5 22q12 30-9 68-16 28-35 38l-3 1q-5 3-21 5 6 15 4 29.5t-12 31.5q-20 34-49 40-14 3-28.5-1t-36.5-17l-96-55zM427 211l-33 57 40 23q15 9 25.5 6t19.5-18 6-25.5-19-19.5zM485 109l-35 61 45 25q15 9 25.5 6t20-19.5 7-27.5-17.5-19zM672 578l170 170q8 7 10.5 16.5t0 19.5-9.5 17-16.5 9.5-19-0.5-16.5-10l-171-171q-7-7-10-16.5t-0.5-19 9.5-16.5 17-9.5 19.5 0 16.5 10.5zM838 466l82 83q11 10 11 25.5t-11 26-26 10.5-26-11l-82-82q-11-11-11-26t11-25.5 26-10.5 26 10zM241 585l128 116q7 7 10 16.5t1 19-8.5 17-16 10.5-19 0.5-16.5-9.5l-128-115q-11-11-12-26t9-26 25-11.5 27 8.5z" />
<glyph unicode="&#xe652;" glyph-name="print" data-tags="print" d="M85 798v-97h854v97h-854zM171 798h682v-694q0-27-10-51.5t-29-43.5-43.5-29-51.5-10h-414q-37 0-67.5 18t-48.5 48.5-18 67.5v694zM244 725v-621q0-26 18-43.5t43-17.5h414q25 0 43 17.5t18 43.5v621h-536zM305 652v-73h146v73h-146zM305 213v-73h146v73h-146zM549 506v-73h146v73h-146zM549 360v-74h146v74h-146zM549 213v-73h146v73h-146z" />
<glyph unicode="&#xe653;" glyph-name="coupon" data-tags="coupon" d="M829 725q27 0 51.5-10t43.5-29 29-43.5 10-51.5v-119l-33-3q-33-3-55-27.5t-22-57.5 22-57.5 55-27.5l33-3v-119q0-27-10-51.5t-29-43.5-43.5-29-51.5-10h-634q-27 0-51.5 10t-43.5 29-29 43.5-10 51.5v119l33 3q33 3 55 27.5t22 57.5-22 57.5-55 27.5l-33 3v119q0 27 10 51.5t29 43.5 43.5 29 51.5 10h634zM829 652h-634q-25 0-43-18t-18-43v-56q49-16 79.5-57.5t30.5-93.5-30.5-93.5-79.5-57.5v-56q0-25 18-43t43-18h634q25 0 43 18t18 43v56q-48 16-78.5 56.5t-31.5 91.5 28 92.5 76 59.5l6 2v56q0 25-18 43t-43 18zM538 580v-44q43-9 61-43l-44-28q-10 14-22 20t-29 6-26-7-9-20.5 11-21.5 41-16l11-2q19-5 28.5-8.5t18.5-9.5q28-18 28-61 0-34-17-53t-52-26v-57h-58v56q-60 8-81 47l46 29q9-15 23.5-22t37.5-7q43 0 43 29 0 7-3 13t-8 10l-3 1q-4 3-12 5l-32 8q-43 10-61.5 29t-18.5 53q0 66 69 77v43h58z" />
<glyph unicode="&#xe657;" glyph-name="bar-chart" data-tags="bar-chart" d="M98 506h121q49 0 49-49v-439q0-48-49-48h-121q-49 0-49 48v439q0 49 49 49zM463 798h122q49 0 49-48v-732q0-48-49-48h-122q-49 0-49 48v732q0 48 49 48zM829 311h122q49 0 49-49v-244q0-48-49-48h-122q-49 0-49 48v244q0 49 49 49z" />
<glyph unicode="&#xe658;" glyph-name="vip" data-tags="vip" d="M884 481l-99-100q-9-9-23-9.5t-24 9.5l-226 216-226-216q-10-10-24-9.5t-23 9.5l-99 100q-22 23-51.5 20.5t-49-25.5-14.5-55l74-443q4-25 23-41t44-16h692q25 0 43.5 16t23.5 41l74 443q5 32-14.5 55t-49 25.5-51.5-20.5zM585 818q-20 20-46.5 26.5t-52.5-1-45-26.5q-30-31-30.5-73t28.5-73l73-74 73 74q14 15 22 34t8 39.5-8 39.5-22 34z" />
<glyph unicode="&#xe659;" glyph-name="bank" data-tags="bank" d="M902 487q27 0 46 19t19 46v55q0 20-10.5 36t-28.5 24l-390 167q-26 11-52 0l-390-167q-18-8-28.5-24t-10.5-36v-55q0-27 19-46t46-19q11 0 19.5-8t8.5-19v-341q0-11-8.5-19.5t-19.5-8.5q-27 0-46-19t-19-46v-32q0-27 19-46t46-19h780q27 0 46 19t19 46v32q0 27-19 46t-46 19q-11 0-19.5 8.5t-8.5 19.5v341q0 11 8.5 19t19.5 8zM749 91h-56q-11 0-19.5 8.5t-8.5 19.5v200q0 20-14 34.5t-34.5 14.5-34.5-14.5-14-34.5v-200q0-11-8.5-19.5t-19.5-8.5h-56q-11 0-19.5 8.5t-8.5 19.5v200q0 20-14 34.5t-34.5 14.5-34.5-14.5-14-34.5v-200q0-11-8.5-19.5t-19.5-8.5h-56q-12 0-20 8.5t-8 19.5v341q0 11 8 19t20 8h474q12 0 20-8t8-19v-341q0-11-8-19.5t-20-8.5z" />
<glyph unicode="&#xe65a;" glyph-name="app-store" data-tags="app-store" d="M512 662l19 32q9 16 25.5 20.5t32-4 20-25-3.5-32.5l-183-312h132q20 0 34-14t18-34-4-37h-383q-18 0-29.5 12.5t-11.5 29.5 12 29 29 12h107l138 240-43 75q-9 16-4.5 33t20.5 25 32.5 3.5 24.5-19.5zM349 213l-40-71q-9-15-25.5-19.5t-32 4-20 25 3.5 32.5l31 53q51 17 83-24zM698 341h110q18 0 30-12.5t12-30-12.5-29-29.5-11.5h-61l42-72q8-16 3.5-33t-20-25-32-3.5-25.5 19.5l-72 125q-62 108-83 145-16 29-17 60-1 26 9 50 9 21 22 33 26-46 112-197zM512 896q-104 0-199-40-92-39-163-110t-110-163q-40-95-40-199t40-199q39-92 110-163t163-110q95-40 199-40t199 40q92 39 163 110t110 163q40 95 40 199t-40 199q-39 92-110 163t-163 110q-95 40-199 40zM958 384q0-121-60-225-59-101-160-160-104-61-225.5-61t-225.5 60q-101 59-160 160-61 104-61 225.5t60 225.5q59 101 160 160 104 61 225.5 61t225.5-60q101-59 160-160 61-104 61-226z" />
<glyph unicode="&#xe660;" glyph-name="Mixin" data-tags="Mixin" d="M46 743l134-56q9-4 14.5-12.5t5.5-18.5v-532q0-9-5-17t-13-13l-134-65q-8-4-16.5-3.5t-16 5-11.5 12-4 16.5v653q0 18 15 28t31 3zM523 572l144-81q11-6 17-16t6-23v-159q0-12-6-22.5t-17-16.5l-144-80q-11-6-22.5-6t-21.5 6l-145 80q-10 6-16 16.5t-6 22.5v159q0 13 6 23t16 16l145 81q10 6 21.5 6t22.5-6zM978 743l-134-56q-9-4-14.5-12.5t-5.5-18.5v-532q0-9 5-17t13-13l134-65q8-4 16.5-3.5t16 5 11.5 12 4 16.5v653q0 18-15 28t-31 3z" />
<glyph unicode="&#xe662;" glyph-name="medal" data-tags="medal" d="M389 790q0 9 6 17h-188q-12 0-20.5-8.5t-8.5-20.5v-146q0-13 10-22l41-37q13-10 28-6 57 56 132 84v139zM598 790q0 9 7 17h-165q6-8 6-17v-122q38 7 77 8 36 0 75-8v122zM840 807h-190q6-8 6-17v-138q79-30 139-90 11 0 19 8l45 40q9 9 9 22v146q0 12-8.5 20.5t-19.5 8.5zM523 607q88 0 163-45 73-42 116-115 44-76 44-163.5t-44-162.5q-43-73-116-116-75-44-162.5-44t-163.5 44q-73 43-115 116-45 75-45 162.5t45 163.5q42 73 115 115 76 45 163 45zM524 456q-3 0-5-1h-1l-50-99-112-15-1-1q-2-1-2-4t1-5l79-80-21-108v-2q1-2 3.5-4t5.5-1l99 50 97-53h1q2 0 4.5 1.5t3.5 3.5v1l-17 111 81 77v5l-2 4-1 1-110 18-47 100h-2q-2 1-4 1z" />
<glyph unicode="&#xe663;" glyph-name="fund-security" data-tags="fund-security" d="M512 811q30 0 60-5 1-26 4-52-32 5-64 5-102 0-190-51-84-50-134-134-51-88-51-190t51-190q50-84 134-134 88-51 190-51t190 51q84 50 134 134 51 88 51 190 0 48-12 95 23 16 43 37 21-65 21-132 0-116-59-215-56-97-153-153-99-59-215-59t-215 59q-97 56-153 153-59 99-59 215t59 215q56 97 153 153 99 59 215 59zM512 691q41 0 80-10 25-83 75.5-144.5t118.5-89.5l16-7 11 5q6-30 6-61 0-83-42-155-41-69-110-110-72-42-155-42t-155 42q-69 41-110 110-42 72-42 155t42 155q40 69 110 110 71 42 155 42zM503 591l-16-56-70 18-9-37 20-6q14-4 18-11 2-4 2-7.5t-2-10.5l-40-149-1-2q-3-6-5-7-5-3-14 0l-21 6-19-42 71-18-16-57 36-9 15 57 28-8-16-57 36-9 15 58q19-3 23-4 33-5 60 4 18 7 29 23 9 12 14 33 4 16 2 30.5t-10 24.5q-5 7-16 15l-10 6 10 4q10 4 15 9t10.5 13 6.5 13q4 8 4 23 0 20-10 35-19 23-59 37l16 58-36 10-15-57-26 4 15 57zM483 378q7-2 13-3 16-4 27-8 26-7 38-18 6-5 10-12 4-10 1-21.5t-11-18.5q-6-3-15-7-12-4-43 2-11 2-27 6l-13 3zM512 484q4-1 7-1 9-2 16-4 22-6 34-15 10-6 14-15.5t1.5-19.5-8-15.5-15.5-7.5q-19-3-38 1-14 3-29 8zM990 816q-19-2-38-2-79 0-150 31-72-31-150-31-19 0-38 2 1-76 26-144 24-66 66-114.5t96-71.5q54 23 96.5 71.5t66.5 114.5q24 68 25 144z" />
<glyph unicode="&#xe664;" glyph-name="referral" data-tags="referral" d="M512 811h5q-9-12-14.5-25.5t-8.5-26.5q-98-4-181-57-81-50-128-133-48-86-48-185 0-102 51-190 50-84 134-134 88-51 190-51t190 51q84 50 134 134 51 88 51 190v6q36 7 50 27 2-16 2-33 0-116-59-215-56-97-153-153-99-59-215-59t-215 59q-97 56-153 153-59 99-59 215t59 215q56 97 153 153 99 59 215 59zM502 691q3-7 7-14l2-4-5-3q-9-6-18-14-52-4-99-25.5t-82-57.5q19-6 27-22 6-14 6-38v-8q0-16 4-23 4-9 32-15l29-6q16-4 35-24l8-9q7-8 10-10l2 1q5 6 8 15t-1 15q16-5 40-6 4-37 46-50-20-5-28-12-7-6-9-17l-3-19q-2-15-0.5-22.5t8.5-15.5l10-9q55-61 66-88l1-2q7-17 8-34 2-26-8-46 52 19 93 55l2 2q22 30 24 79v20q0 20-4 28-5 12-18 19l-18 9-9 5q-8 4-14 9t-13 14l-11 17 54-1h91l44 1v-1q0-83-42-155-40-70-110-110-72-42-155-42t-155 42q-70 40-110 110-42 72-42 154.5t40 152.5q39 68 107 110t149 45h1zM811 453h-156q-46 0-66 3h-4q-5 1-11 2 3 128 115 152l25 5q37-31 62-73t35-89zM833 579q45-38 47-121v2q-13 62-46 117zM785 712v-1l-5-9q-7-18-26-30v-1q-43 36-93 58-3 27 10 51 62-25 114-68zM990 509q0-19-10-25t-41-6q-8 70-42 116-28 37-73 58 27 36 28 82t-24 84q30 9 57.5-8.5t35.5-50.5q7-30-5.5-57.5t-38.5-38.5q50-13 81.5-56t31.5-98zM773 643q60-12 95-51 46-50 46-139 0-17-16.5-24.5t-58.5-9.5q-28-1-112.5-1t-112.5 1q-41 2-57.5 9.5t-16.5 24.5q0 88 46 138 36 40 95 52-25 14-39 38t-15.5 52.5 10.5 54.5 35 41 49.5 16 50-13 37.5-38 15-52-12-53q-12-28-39-46zM627 652q-45-21-73-59-35-46-42-115-31 0-41 6t-10 25q-3 55 29 98.5t82 55.5q-29 14-40.5 45.5t1.5 62.5q12 28 37.5 40.5t52.5 4.5q-25-36-24-81.5t28-82.5z" />
<glyph unicode="&#xe667;" glyph-name="guandian" data-tags="guandian" d="M706 187v-96q0-32-22.5-54.5t-54.5-22.5h-215q-32 0-54.5 22.5t-22.5 54.5v96q-85 49-134 133-51 86-51 187t50 187q49 84 133 133 86 50 186.5 50t186.5-50q84-49 133-133 50-86 50-187 0-19-13.5-32.5t-32.5-13.5-32.5 13.5-13.5 32.5q0 76-37.5 139.5t-101 101-139 37.5-139-37.5-101-101-37.5-139 37.5-139 101-101 138.5-37.5q60 0 114.5 24.5t94.5 69.5q12 14 31 15t33-11.5 15.5-31.5-10.5-33q-40-46-93-76zM614 149q-45-12-92.5-12t-92.5 12v-42h185v42zM460-109q-19 0-32.5 13.5t-13.5 32.5 13.5 32.5 32.5 13.5h131q19 0 32.5-13.5t13.5-32.5-13.5-32.5-32.5-13.5h-131zM521 738q20 0 33.5-13.5t13.5-32.5-13.5-32.5-33.5-13.5q-35 0-65.5-16.5t-50.5-46.5q-6-11-17.5-16.5t-24-5-23 7.5-16 18-4.5 23.5 8 23.5q32 49 83.5 76.5t109.5 27.5z" />
<glyph unicode="&#xe668;" glyph-name="Info" data-tags="Info" d="M793 576l-109 129q-13 15-11 34.5t17 32.5 34.5 11.5 32.5-16.5l174-205q3-3 5-6l9-11v-529q0-39-19.5-72t-52.5-52.5-72-19.5h-578q-39 0-72 19.5t-52.5 52.5-19.5 72v736q0 39 19.5 72t52.5 52.5 72 19.5h353q20 0 34-14t14-34v-224q0-20 14.5-34t33.5-14h121zM528 798h-303q-20 0-34-14t-14-34v-732q0-20 14-34t34-14h574q20 0 34 14t14 34v461h-176q-39 0-71.5 19.5t-52 52.5-19.5 72v175zM323 246q-20 0-33.5 14.5t-13.5 35 13.5 35 33.5 14.5h378q20 0 33.5-14.5t13.5-35-13.5-35-33.5-14.5h-378zM323 69q-20 0-33.5 14.5t-13.5 35 13.5 34.5 33.5 14h378q20 0 33.5-14t13.5-34.5-13.5-35-33.5-14.5h-378z" />
<glyph unicode="&#xe669;" glyph-name="member-2" data-tags="member-2" d="M416-113q-26-13-55.5-14.5t-56.5 9.5-47 33-28 50l-27 87q-5 17-22 22l-87 27q-28 9-50 28.5t-33 46.5-9.5 56.5 14.5 55.5l43 81q8 15 0 30l-43 81q-13 26-14.5 55.5t9.5 56.5 33 47 50 28l87 27q17 5 22 22l27 87q8 28 28 50t47 33 56.5 9.5 55.5-14.5l81-43q15-8 30 0l81 43q26 13 55.5 14.5t56.5-9.5 46.5-33 28.5-50l27-87q5-17 22-22l87-27q28-8 50-28t33-47 9.5-56.5-14.5-55.5l-43-81q-8-15 0-30l43-81q13-26 14.5-55.5t-9.5-56.5-33-46.5-50-28.5l-87-27q-17-5-22-22l-27-87q-9-28-28.5-50t-46.5-33-56.5-9.5-55.5 14.5l-81 43q-15 8-30 0zM573 17l81-43q14-7 28.5-1t18.5 21l27 87q9 31 32.5 54.5t54.5 32.5l87 27q15 5 21 19t-1 28l-43 81q-16 28-16 61t16 62l43 80q7 14 1 28.5t-21 18.5l-87 27q-31 9-54.5 32.5t-32.5 54.5l-27 87q-5 15-19 21t-28-1l-81-43q-28-16-61-16t-62 16l-80 43q-14 7-28.5 1t-18.5-21l-27-87q-9-31-32.5-54.5t-54.5-32.5l-87-27q-15-4-21-18.5t1-28.5l43-80q16-29 16-62t-16-61l-43-81q-7-14-1-28t21-19l87-27q31-9 54.5-32.5t32.5-54.5l27-87q4-15 18.5-21t28.5 1l81 43q28 16 61 16t62-16h-1zM508 650q21 0 35.5-14.5t14.5-35-14.5-34.5-35.5-14q-44 0-81.5-22.5t-60-60-22.5-82 22.5-82 60-59.5 82-22 82 22 59.5 59.5 22 82.5q1 52-30 95-11 16-7.5 36t20 31.5 36 8.5 31.5-19q24-34 36.5-73t12.5-79q0-72-35.5-132t-95.5-95.5-131.5-35.5-131.5 35.5-95.5 95.5-35.5 131.5 35.5 131.5 95.5 95.5 131 35.5z" />
<glyph unicode="&#xe66c;" glyph-name="cancel" data-tags="cancel" d="M512 896q104 0 199-40 92-39 163-110t110-163q40-95 40-199t-40-199q-39-92-110-163t-163-110q-95-40-199-40t-199 40q-92 39-163 110t-110 163q-40 95-40 199t40 199q39 92 110 163t163 110q95 40 199 40zM512 800q-113 0-210-57-94-55-149-149-57-97-57-210t57-210q55-94 149-149 97-57 210-57t210 57q94 55 149 149 57 97 57 210t-57 210q-55 94-149 149-97 57-210 57zM659 599l68-68-147-147 147-147-68-68-147 147-147-147-68 68 147 147-147 147 68 68 147-147z" />
<glyph unicode="&#xe66e;" glyph-name="lock" data-tags="lock" d="M512 896q80 0 148-33t109-89q43-58 47-127v-110q56-15 92-62t36-107v-320q0-48-23.5-88.5t-64-64-88.5-23.5h-512q-48 0-88.5 23.5t-64 64-23.5 88.5v320q0 60 36 107t92 62v98q0 71 42 133 40 58 110 93t152 35zM768 448h-512q-33 0-56.5-23.5t-23.5-56.5v-320q0-33 23.5-56.5t56.5-23.5h512q33 0 56.5 23.5t23.5 56.5v320q0 33-23.5 56.5t-56.5 23.5zM512 400q39 0 72-19.5t52.5-52.5 19.5-72q0-46-26.5-83.5t-69.5-52.5v-88h-96v88q-43 15-69.5 52.5t-26.5 83.5q0 39 19.5 72t52.5 52.5 72 19.5zM512 304q-20 0-34-14t-14-34 14-34 34-14 34 14 14 34-14 34-34 14zM512 800q-55 0-101.5-21t-75-57-31.5-78v-100h416v91q0 44-27.5 82t-75.5 60.5-105 22.5z" />
<glyph unicode="&#xe670;" glyph-name="check" data-tags="check" horiz-adv-x="1134" d="M71 515l-71-75 425-560 709 933-71 75-638-672z" />
<glyph unicode="&#xe671;" glyph-name="add" data-tags="add" d="M768 896q63 0 117-30.5t86.5-82.5 36.5-114v-221h-96v208q0 37-18 69.5t-48.5 52-67.5 22.5h-522q-37 0-69.5-18t-52-48.5-22.5-67.5v-554q0-37 18-69.5t48.5-52 67.5-22.5h202v-96h-192q-63 0-117 30.5t-86.5 82.5-36.5 114v557q0 63 30.5 117t82.5 86.5 114 36.5h525zM752 480v-240h240v-96h-240v-240h-96v240h-240v96h240v240h96z" />
<glyph unicode="&#xe672;" glyph-name="rejected" data-tags="rejected" d="M1018 464q16-103-9-203-24-97-83-178t-143-134q-88-54-191-70.5t-203 8.5q-97 24-178 83t-134 143q-54 88-70.5 191t8.5 203q24 97 83 178t143 134q88 54 191 70.5t203-8.5q97-24 178-83t134-143q54-88 71-191zM447 795q-112-18-199-89-84-69-124-171-40-104-22.5-216t88.5-199q69-84 171-124 104-40 216-22.5t199 88.5q84 69 124 171 40 104 22.5 216t-88.5 199q-69 84-171 124-104 40-216 23zM832 432v-96h-640v96h640z" />
<glyph unicode="&#xe676;" glyph-name="safety" data-tags="safety" d="M514 896l441-171 3-363q1-101-48-189.5t-135-140.5l-261-160-264 162q-84 52-133 138.5t-50 185.5l-3 367zM514 793l-354-134 3-300q0-71 33.5-133t91.5-102l12-8 214-131 211 129q61 37 97.5 99t39.5 133v15l-2 298zM512 688q46 0 85.5-22t63.5-60 27-83v-30q14-5 23-17.5t9-27.5v-256q0-20-14-34t-34-14h-320q-20 0-34 14t-14 34v256q0 15 9 27.5t23 17.5v19q0 48 23.5 88.5t64 64 88.5 23.5zM624 400h-224v-160h224v160zM560 352v-64h-96v64h96zM512 592q-31 0-53.5-20.5t-26.5-51.5v-24h160v16q0 33-23.5 56.5t-56.5 23.5z" />
<glyph unicode="&#xe677;" glyph-name="transaction" data-tags="transaction" horiz-adv-x="1038" d="M526 896q104 0 200-40 91-39 162-110t110-163q40-95 40-199t-40-199q-39-92-110-163t-162-110q-96-40-200-40-123 0-232.5 56t-181.5 154l-10 15 79 54q58-86 149.5-134.5t195.5-48.5q113 0 210 57 94 55 149 149 57 97 57 210t-57 210q-55 94-149 149-97 57-210 57-110 0-206-54-92-53-148-144-58-93-62-203v-2l96-3 118 177q9 14 25 19t31.5-1 24.5-20l3-7 133-318 115 162q12 17 33 20h172v-96h-141l-152-212q-9-14-25-18t-31 1.5-24 20.5l-3 6-131 315-83-124q-12-19-34-22h-7l-217 7 2 80h-1q0 104 40 199 39 92 110 163t163 110q95 40 199 40z" />
<glyph unicode="&#xe679;" glyph-name="contribute" data-tags="contribute" d="M337 390l206-171 140 70q111 56 194 27.5t124-137.5l18-55-561-246h-458v96h438l460 202-3 5q-25 42-62.5 48.5t-96.5-20.5l-277-139h-171v96h149l12 7-146 121h-303v96h337zM698 880q59 0 108-29t77.5-78.5 28.5-107.5q0-41-14-84l-2-7-9-22-5-12q-40-84-131-161-50-41-105-75l-43-24-27-13-27 13-23 12-20 12q-55 33-105 75-91 76-132 160l-4 10-14 38q-11 34-11 76 0 59 28.5 109t77.5 79 108 29q64 0 116-35l6-4 6 4q46 31 102 35h14zM698 784q-25 0-47.5-10t-38.5-29l-36-40-36 40q-16 19-39 29t-47 10q-32 0-59-16t-43-44-16-60 10-57l10-27q32-65 107-128 44-36 93-66l20-12 20 12q49 30 93 67 75 63 107 128l7 19 6 20q7 24 7 45 0 32-16 59.5t-43 43.5-59 16z" />
<glyph unicode="&#xe67a;" glyph-name="member-1" data-tags="member-1" d="M512 896l443-256v-512l-443-256-443 256v512zM512 785l-347-200v-402l347-200 347 200v402zM744 344q9-16 5.5-33.5t-17.5-28.5l-5-4-192-110q-20-12-42-3l-6 3-191 110q-16 9-21.5 27.5t2.5 35.5 26 23.5 35-0.5l6-3 167-96 168 97q17 9 36 4t29-22z" />
<glyph unicode="&#xe67b;" glyph-name="wallet" data-tags="wallet" d="M640 896q35 0 64.5-17t46.5-46.5 17-64.5v-64h128q35 0 64.5-17t46.5-46.5 17-64.5v-512q0-52-26-96t-70-70-96-26h-640q-52 0-96 26t-70 70-26 96v704q0 35 17 64.5t46.5 46.5 64.5 17h512zM896 608h-800v-544q0-37 25-64.5t62-31.5h649q37 0 64.5 25t31.5 62v25h-416q-57 0-104.5 28t-75.5 75.5-28 103.5 26 102.5 71 75 99 31.5h428v80q0 12-7.5 20.5t-18.5 10.5zM928 400h-416q-30 0-55-14.5t-40.5-39-16.5-54 12-55.5 37-42 54-19h425v224zM640 336q19 0 33-13t15-32-11-33.5-30-17.5h-135q-19 0-33 13t-15 32 11 33.5 30 17.5h135zM640 800h-512q-12 0-20.5-7.5t-10.5-18.5l-1-6v-64h576v64q0 12-7.5 20.5t-18.5 10.5z" />
<glyph unicode="&#xe67c;" glyph-name="license" data-tags="license" d="M768 896q35 0 64.5-17t46.5-46.5 17-64.5v-256h-96v256q0 12-7.5 20.5t-18.5 10.5l-6 1h-608q-12 0-20.5-7.5t-10.5-18.5l-1-6v-768q0-12 7.5-20.5t18.5-10.5l6-1h288v-96h-288q-35 0-64.5 17t-46.5 46.5-17 64.5v768q0 35 17 64.5t46.5 46.5 64.5 17h608zM992 416v-544l-224 128-224-128v544h448zM896 320h-256v-282l128 73 128-74v283zM320 336q39 0 72-19.5t52.5-52.5 19.5-72-19.5-72-52.5-52.5-72-19.5-72 19.5-52.5 52.5-19.5 72 19.5 72 52.5 52.5 72 19.5zM320 240q-20 0-34-14t-14-34 14-34 34-14 34 14 14 34-14 34-34 14zM512 496v-96h-320v96h320zM736 688v-96h-544v96h544z" />
<glyph unicode="&#xe67d;" glyph-name="switch" data-tags="switch" d="M336 720v-96q-65 0-120-32.5t-87.5-87.5-32.5-119 30.5-118 82.5-86.5 114-36.5h109l-38 51 76 58 96-128q11-15 10-32t-12.5-29.5-28.5-15.5h-199q-91 0-170 46-76 44-120 120-46 79-46 170 0 89 44 166 42 74 115 120 75 46 163 50h14zM688 720q91 0 170-46 76-44 120-120 46-79 46-170 0-89-44-166-42-74-115-120-75-46-163-50h-14v96q65 0 120.5 32.5t87.5 87.5 32 119-30.5 118-82.5 86.5-114 36.5h-109l39-51-77-58-96 128q-11 15-10 32t12.5 29.5 28.5 15.5h199z" />
<glyph unicode="&#xe67e;" glyph-name="global" data-tags="global" d="M512 896q104 0 199-40 92-39 163-110t110-163q40-95 40-199t-40-199q-39-92-110-163t-163-110q-95-40-199-40t-199 40q-92 39-163 110t-110 163q-40 95-40 199t40 199q39 92 110 163t163 110q95 40 199 40zM656 192h-291q17-119 57-232l6-16q41-8 84-8 38 0 75 6 48 121 69 250zM917 192h-196q-18-118-58-230 84 30 150 90t104 140zM301 192h-194q37-78 101-137t145-90q-37 111-52 227zM295 512h-212q-19-63-19-128.5t19-127.5h210q-5 60-5 121 0 68 7 135zM666 512h-307q-7-67-7-135 0-61 6-121h307q7 66 7 133 0 62-6 123zM941 512h-211q6-61 6-123 0-67-7-133h212q19 63 19 128.5t-19 127.5zM358 805h-1q-82-31-147-90.5t-103-138.5h196q17 117 55 229zM512 832q-40 0-78-7l2 7q-48-124-69-256h290q-18 122-61 237l-5 12q-39 7-79 7zM667 805l4-13q35-106 51-216h195q-38 79-103 138.5t-147 90.5z" />
<glyph unicode="&#xe680;" glyph-name="link" data-tags="link" d="M399 577h-341q-23 1-40-13.5t-17-34.5v-289q0-20 16.5-34.5t40.5-14.5h340q24 0 40.5 14t16.5 34v49h-340v193h340v48q0 20-16.5 34t-39.5 14zM966 577h-340q-24 0-40.5-14t-16.5-34v-49h341l-1-193h-340v-48q0-20 16.5-34t39.5-14h341q23 0 40 14t17 34v289q0 20-16.5 34.5t-40.5 14.5zM694 425h-365q-23 0-39.5-14t-16.5-33.5 16.5-33.5 39.5-14h365q24 0 40 14t16 33.5-16 33.5-40 14z" />
<glyph unicode="&#xe681;" glyph-name="arrow" data-tags="arrow" d="M231 829l67 67 512-511-512-512-67 68 444 444z" />
<glyph unicode="&#xe682;" glyph-name="close" data-tags="close" d="M512 324l-250-251q-8-7-18.5-7t-18.5 7l-24 24q-7 8-7 18.5t7 18.5l251 250-251 250q-7 8-7 18.5t7 18.5l24 24q8 7 18.5 7t18.5-7l250-251 250 251q8 7 18.5 7t18.5-7l24-24q7-8 7-18.5t-7-18.5l-251-250 251-250q7-8 7-18.5t-7-18.5l-24-24q-8-7-18.5-7t-18.5 7z" />
<glyph unicode="&#xe683;" glyph-name="coingecko" data-tags="coingecko" d="M596-82h-2l-11-3q9 2 13 3v0 0zM510 896q-104 0-199-41-92-39-162.5-110.5t-109.5-163.5q-39-95-39-199t41-199q39-92 110.5-162.5t163.5-109.5q95-39 199-39t199 41q92 39 162.5 110.5t109.5 163.5q39 95 39 199t-41 199q-39 92-110.5 162.5t-163.5 109.5q-95 39-199 39zM445 409q-38 0-65 26.5t-27 65 27 65 65 26.5 64.5-26.5 26.5-64.5-26.5-65-64.5-27zM518 310l1 1q34-22 86-23 47-2 90 7 46 10 87 27l12 5q21 9 36 17 16 10 27 18l6 5 1-2q-28-25-78-50-43-20-88-32-56-14-94-11-58 6-86 38zM753 409q0 8 5.5 14t14 6 14-6 5.5-14-5.5-14-13.5-6-14 6-6 14zM596-82v0 0 0q-13 91 52 198 41 68 117 146l23 21q25 24 38 38 47 44 61 86 15 46-15 83-33 40-120 64-33 9-102 36l-4 2q-16 11-64.5 27t-67.5 18h-1q-70 16-123 3-83-22-131-59-42-32-61-80-15-37-19-95l-1-16q-8-98-16-143-12-71-40-132-40 58-61 125-23 69-23 142 0 129 64 239 62 108 169 171 110 65 238.5 65.5t239.5-63.5q107-62 171-169 65-110 65-239 1-115-51-216-50-99-139-165.5t-199-86.5zM521 827q45 7 90.5-0.5t87.5-28.5q24-14 67-49l6-5q46-38 68-59 33-31 58.5-70t40.5-83q32-93 17-181h-2q-17 99-45 170-16 42-35 78-21 39-46.5 75t-60.5 61q-26 18-79 39l-17 7q-42 17-64 23-33 10-86 20v3zM596-82h-2l-11-3q9 2 13 3v0 0zM830 344q15 9 27 18zM646 592q-1 5-3 8v1q-7 11-23 25t-47 16q-27 2-59-5 19-2 67.5-18t64.5-27v0 0zM646 592q-16 11-64.5 27t-67.5 18v0q39 12 74 4 39-8 55-40zM509 500q0-27-18.5-46t-45.5-19-46 19-19 45.5 19 45.5 46 19 45.5-19 18.5-45z" />
<glyph unicode="&#xe684;" glyph-name="instagram" data-tags="instagram" d="M340 788q-57-3-100-19t-74.5-48-48-74.5-19.5-100.5q-1-35-2-60v-223q1-25 2-60 3-58 19.5-100.5t48.5-74.5 74.5-48 99-19 172.5-3 172.5 3 99.5 19 74.5 48 48 74.5 19 99.5 2.5 172.5-2.5 172.5-19 99.5-48 74.5-74.5 48-99.5 18.5-172.5 2.5-172-2zM680 713q46-2 77-14 28-11 48.5-31.5t30.5-47.5q13-32 15-78 1-35 2-58v-219q-1-24-2-59-3-46-15-77-10-28-30.5-48.5t-48.5-30.5q-31-12-77-14-35-2-59-2-29-1-109-1t-109 1q-24 0-59 2-46 2-77 14-28 10-48.5 31t-30.5 48q-13 31-15 77-1 35-2 59v219q1 23 2 58 3 46 15 78 10 27 30.5 47.5t48.5 31.5q31 12 77 14 35 2 59 2h218q24 0 59-2zM373 374q0 38 19 70t50.5 50.5 69.5 18.5 69.5-18.5 50.5-50.5 19-69.5-19-69.5-50.5-50.5-69.5-18.5-69.5 18.5-50.5 50.5-19 69zM298 374q0-58 29-107t78-77.5 107-28.5 107 28.5 78 77.5 29 107-29 107-78 78-107 29-107-29-78-78-29-107zM734 546q-21 0-35.5 15t-14.5 35.5 14.5 35 35.5 14.5 35.5-14.5 14.5-35-14.5-35.5-35.5-15z" />
<glyph unicode="&#xe685;" glyph-name="medium" data-tags="medium" d="M936 64h-298v94h62v418h-2l-146-512h-113l-144 512h-4v-418h63v-94h-250v94h32q12 1 21.5 9.5t9.5 16.5v398q0 8-10.5 18t-20.5 10h-32v94h312l103-371h3l103 371h311v-94h-33q-8 0-18.5-10t-10.5-18v-398q0-8 10-17t19-9h33v-94z" />
<glyph unicode="&#xe686;" glyph-name="tiktok" data-tags="tiktok" d="M510 767q26 1 76 1h50q2-38 15-72 15-36 41-61 48-48 135-58v-129q-70 2-134 31-27 13-52 30v-105q0-117-1-175-4-70-43-126-31-46-82-74t-107-29q-70-3-131 33-48 29-79.5 78t-36.5 105q-1 24-1 48 5 45 26.5 87t56.5 71q40 35 92.5 50t104.5 5q0-27-1-81l-1-61q-24 8-50 5.5t-46-16.5q-31-21-44-56-4-10-4-22-1-7 0-22v-8q4-26 20.5-48t41-34 50.5-11 50 15.5 38 37.5l1 2q12 20 13 32 2 42 2 126v431z" />
<glyph unicode="&#xe687;" glyph-name="reddit" data-tags="reddit" d="M813 768q31 0 52.5-19t21.5-47q0-13-5.5-25.5t-16.5-20.5q-21-20-51.5-20t-52.5 20q-10 8-16 20.5t-5 25.5l-165 33-20-79q73-7 137-36t110-76q12 5 30 5 35 0 64.5-15t46.5-40 17-55-17.5-55.5-46.5-39.5v-15q0-89-52-166-51-74-138-118-90-45-194-45t-194 45q-87 44-138 118-52 77-52 166v15q-29 14-46.5 39.5t-17.5 55.5 17 55 46.5 40 64.5 15q20 0 30-4 54 53 128 83 77 30 162 30h9l24 98q2 6 7.5 9.5t12.5 2.5l182-36q9 16 27 26t39 10zM658 234q-7 0-13-4-20-19-60-27-79-18-158 0-39 8-59 27-6 4-13 4t-12.5-4-5.5-11 5-12q22-19 59-30t60-13q45-4 90 0 23 2 60.5 13t58.5 30q5 4 5 11t-5 11.5-12 4.5zM344 429q-30 0-52-19t-22-47 21.5-47 52.5-19 52 19q11 9 16.5 21.5t5.5 25.5-5.5 25.5-16.5 20.5q-22 20-52 20zM669 429q-31 0-53-19t-22-47 22-47 52.5-19 52 19 21.5 47-22 47-51 19z" />
<glyph unicode="&#xe688;" glyph-name="youtube" data-tags="youtube" d="M427 256v299l256-150zM1014 612q-2 9-4 19-5 23-13 42-10 27-24 41-23 24-53 34-17 6-43 9l-7 1q-89 6-232 9l-126 1-126-1q-143-3-232-9l-7-1q-26-3-43-9-30-10-53-34-19-20-32-63-6-22-9-39l-5-53q-5-62-5-114v-79q0-52 5-114l5-53 4-19q5-23 13-42 10-27 24-41 21-22 52-32 17-6 47-10l14-2q51-5 205-8 76-2 143-2l125 1q144 3 233 9l7 1q26 3 43 9 30 10 53 34 19 20 32 63 6 22 9 39l5 53q5 62 5 114v79q0 52-5 114z" />
<glyph unicode="&#xe68b;" glyph-name="gift" data-tags="gift" d="M896 681h-768q-28 0-47.5-20.5t-19.5-48.5v-166l1-7q2-26 21-44t45-18h36v-331q0-29 19.5-49t46.5-20h571q25 3 42 22.5t17 46.5v331h36q28 0 47.5 20.5t19.5 48.5v166q0 28-19.5 48.5t-47.5 20.5zM881 599v-140h-103v-400h-532v400h-103v140h738zM512 451q15 0 27-10t14-26v-184q0-16-11-28t-27.5-13-29 9.5-14.5 26.5v184q0 17 12 29t29 12zM410 835q36 0 68.5-18t52.5-49 22-68-14-70l-5-10-71 41q11 19 7.5 40.5t-20 35.5-38 15.5-39-11.5-23-34 2.5-41l3-5-71-41q-19 33-19 71.5t19.5 71.5 52.5 52.5 72 19.5zM614 835q37 0 69.5-18t52-49 22-68-13.5-70l-5-10-71 41q11 19 7.5 40.5t-20 35.5-38 15.5-39-11.5-23.5-34 3-41l3-5-71-41q-19 33-19 71.5t19.5 71.5 52.5 52.5 71 19.5z" />
<glyph unicode="&#xe68c;" glyph-name="system" data-tags="system" d="M830 835h-636q-39 0-71.5-19.5t-52-52.5-19.5-72v-409q0-29 11-55.5t31-46.5 46.5-31 54.5-11h636q28 0 54.5 11t46.5 31 31 46.5 11 55.5v409q0 29-11 55t-31 46.5-46.5 31.5-54.5 11zM194 753h636q25 0 43-18t18-44v-409q0-26-18-44t-43-18h-636q-25 0-43 18t-18 44v409q0 26 18 44t43 18zM641 527q16 0 28-11t13-27-9.5-28.5-26.5-14.5l-5-1h-257q-16 0-28 11.5t-13 27.5 9.5 28.5 26.5 14.5h262zM691 41q16 0 28-11t13-27.5-9.5-29-26.5-14.5h-363q-16 0-28 11t-13 27.5 9.5 29 26.5 14.5h363z" />
<glyph unicode="&#xe68d;" glyph-name="setup" data-tags="setup" d="M768 827l256-443-256-443h-512l-256 443 256 443h512zM713 731h-402l-200-347 200-347h402l200 347zM512 608q61 0 112.5-30t81.5-81.5 30-112.5-30-112.5-81.5-81.5-112.5-30-112.5 30-81.5 81.5-30 112.5 30 112.5 81.5 81.5 112.5 30zM512 512q-35 0-64.5-17t-46.5-46.5-17-64.5 17-64.5 46.5-46.5 64.5-17 64.5 17 46.5 46.5 17 64.5-17 64.5-46.5 46.5-64.5 17z" />
<glyph unicode="&#xe68e;" glyph-name="gour-glass" data-tags="gour-glass" d="M832 896q27 0 45.5-18.5t18.5-45.5v-169q0-23-15-41l-200-238 200-238q12-14 14-32l1-9v-169q0-24-16-42.5t-41-21.5h-647q-24 0-42.5 16t-21.5 41v176q0 18 10 34l5 7 200 238-200 238q-15 18-15 41v169q0 27 18.5 45.5t45.5 18.5h640zM800 800h-576v-125l193-229q20-25 21.5-57.5t-16.5-58.5l-5-8-193-229v-125h576v125l-193 229q-20 25-22 57.5t17 58.5l5 8 193 229v125zM672 144q19 0 33-13t15-32-11-33.5-30-17.5h-327q-19 0-33 13t-15 32 11 33.5 30 17.5h327z" />
<glyph unicode="&#xe68f;" glyph-name="trash" data-tags="trash" d="M800 512q18 0 31.5-12t16.5-29v-423q0-46-22-85t-60-63.5-83-27.5h-331q-46 0-85 22t-63.5 60-27.5 83v427q0 19 13 33t32 15 33.5-11 17.5-30v-423q0-31 20.5-54t51.5-26h328q31 0 53.5 20.5t26.5 51.5v424q0 20 14 34t34 14zM416 528q18 0 31.5-12t16.5-29v-327q0-19-13-33t-32-15-33.5 11-17.5 30v327q0 20 14 34t34 14zM608 528q18 0 31.5-12t16.5-29v-327q0-19-13-33t-32-15-33.5 11-17.5 30v327q0 20 14 34t34 14zM704 896h9q44-4 73.5-36t29.5-76v-96h144q19 0 33-13t15-32-11-33.5-30-17.5h-903q-19 0-33 13t-15 32 11 33.5 30 17.5h151v105q4 44 36 73.5t76 29.5h384zM704 800h-388q-5-2-8.5-6t-3.5-10v-96h416v100q-2 5-6 8.5t-10 3.5z" />
<glyph unicode="&#xe691;" glyph-name="clear" data-tags="clear" d="M512 896q38-1 69.5-20t50-51 18.5-69v-183h235q31-1 53-23t22-53v-88q1-32-20.5-54.5t-52.5-23.5h-26l57-370q5-31-13-56.5t-48-31.5h-1q-6-1-11-1h-665q-31 1-53 23.5t-22 53.5q0 6 1 11l57 371h-24q-31 1-53 23t-22 53v89q-1 31 20.5 53.5t52.5 23.5h237v180q-1 38 17 70t49.5 51.5 69.5 21.5h2zM786 331h-548l-58-382h137l33 219q2 17 16 27.5t32 8 28-17 7-32.5l-31-205h442zM374 496h-235v-87h746v87h-235v-1h-276v1zM512 819q-26-1-44.5-19.5t-18.5-45.5v-181h126v180q0 26-17.5 45t-43.5 21h-2z" />
<glyph unicode="&#xe693;" glyph-name="notify" data-tags="notify" d="M656-65q14 0 23-9t9-22.5-9-22.5-23-9h-288q-14 0-23 9t-9 22.5 9 22.5 23 9h288zM514 896q12 0 21-8.5t9-21.5v-88q89-8 163-58 73-48 114-125 43-78 43-168v-342h86q13 0 22-9.5t9-22-9-21.5-22-9h-876q-13 0-22 9t-9 21.5 9 22 22 9.5h86v342q0 91 43 170 43 76 116 125 75 49 165 56v88q0 13 9 21.5t21 8.5zM512 721q-76 0-140.5-36.5t-103.5-99.5-43-138v-362h574v349q0 78-40 145-38 65-102 103-67 39-145 39z" />
<glyph unicode="&#xe694;" glyph-name="coinmarketcap" data-tags="coinmarketcap" d="M890 284q-12-8-27-9t-29 5q-15 9-23 28.5t-8 46.5v113q0 40-15.5 67.5t-42.5 34.5q-39 12-78-24-21-19-46-58l-109-174v210q-2 74-48 87-18 5-36-2-24-9-43-39l-243-383q-49 92-48 197 0 114 57 211 55 95 150 151 97 57 210.5 57t211.5-57q95-56 150-151 57-97 57-211v-2q2-34-8.5-59.5t-31.5-38.5v0zM1024 384v2q-1 104-41 199-39 91-110 161.5t-163 109.5q-95 40-198.5 40t-198.5-40q-92-39-163-110t-110-163q-40-95-40-199t40-199q39-92 110-163t163-110q95-40 199-40 97 0 187 35.5t161 101.5q14 13 14.5 32t-12.5 33.5-32 15-33-11.5q-62-58-141-87t-163-25-160 40-132 99l218 345v-159q0-52 18-80 14-22 37-28.5t47 4.5q30 14 58 58l120 192q5 8 11 16v-98q0-53 21-94t59-63q35-18 75.5-16.5t74.5 22.5q42 27 64 74t19 106h1z" />
<glyph unicode="&#xe695;" glyph-name="percentage" data-tags="percentage" d="M512 896q104 0 199-40 92-39 163-110t110-163q40-95 40-199t-40-199q-39-92-110-163t-163-110q-95-40-199-40t-199 40q-92 39-163 110t-110 163q-40 95-40 199t40 199q39 92 110 163t163 110q95 40 199 40zM512 832q-122 0-226-61-101-60-161-161-61-104-61-226t61-226q60-101 161-161 104-61 226-61t226 61q101 60 161 161 61 104 61 226t-61 226q-60 101-161 161-104 61-226 61zM640 320q35 0 64.5-17t46.5-46.5 17-64.5-17-64.5-46.5-46.5-64.5-17-64.5 17-46.5 46.5-17 64.5 17 64.5 46.5 46.5 64.5 17zM640 256q-27 0-45.5-18.5t-18.5-45.5 18.5-45.5 45.5-18.5 45.5 18.5 18.5 45.5-18.5 45.5-45.5 18.5zM716 633l45-45-453-453-45 45zM384 704q35 0 64.5-17t46.5-46.5 17-64.5-17-64.5-46.5-46.5-64.5-17-64.5 17-46.5 46.5-17 64.5 17 64.5 46.5 46.5 64.5 17zM384 640q-27 0-45.5-18.5t-18.5-45.5 18.5-45.5 45.5-18.5 45.5 18.5 18.5 45.5-18.5 45.5-45.5 18.5z" />
<glyph unicode="&#xe696;" glyph-name="increase" data-tags="increase" d="M686 386q-16-158-97-275-65-93-168-155-73-44-159-69-42-12-70-15v0q73 29 116 131 33 81 47 204 9 85 7 179h-234l381 510 387-510h-210z" />
<glyph unicode="&#xe697;" glyph-name="arrow-down" data-tags="arrow-down" d="M956 675l68-67-512-512-512 512 68 67 444-444z" />
<glyph unicode="&#xe698;" glyph-name="arrow-up" data-tags="arrow-up" d="M956 96l68 67-512 512-512-512 68-67 444 444z" />
<glyph unicode="&#xe69b;" glyph-name="search" data-tags="search" d="M757 72l-7-6q-58-44-126-69.5t-140-28.5h-20q-126 0-234 63-105 62-167 167-63 108-63 234t63 234q62 105 167 167 108 63 234 63t234-63q105-62 167-167 63-108 63-234 0-78-25-150-7-19-24.5-27.5t-36-2-27.5 24-3 36.5q20 58 20 119 0 100-50 186-49 83-132 132-86 50-186 50t-186-50q-83-49-132-132-50-86-50-186t50-186q49-83 132-132 86-50 186-50 73 0 141 28t120 80q12 13 30 14.5t32-9.5l6-5 231-236-64-64z" />
<glyph unicode="&#xe69d;" glyph-name="associate" data-tags="associate" horiz-adv-x="2252" d="M1008 864q22-21 29-50t-2.5-57-32.5-47.5-53-24.5l-17-1h-411q-83 0-154-41-70-40-110-108-42-70-42-151 0-77 38-144 36-65 99.5-106.5t140.5-48.5l28-2h411q42 0 73-27.5t34-69-22.5-74-66.5-38.5l-18-2h-411q-103 0-198.5 39t-169 111-113.5 166-40 196q0 132 66 248 64 112 174 182 113 71 248 80l33 1h411q42 0 73-28zM1568 351q-10-28-33-47.5t-53-24.5l-17-1h-684q-34 0-63 20l-13 11-11 13q-23 31-20 70t31 66q25 24 59 30l17 1h684q22 0 41.5-8t34.5-23q22-21 29-50t-2-57zM1729 895q106 0 202-40 94-39 166-110t112-162q40-95 41-199-1-133-66-249-64-112-174-181-113-72-249-81l-32-1h-404q-35 0-63 21l-13 10-11 13q-23 31-20 70t31 66q25 25 59 30l17 1h404q83 1 154 42 69 39 110 107 41 70 42 152-1 76-37.5 142t-100 108-141.5 49l-27 1h-404q-42-1-73 27t-34.5 70 22.5 74.5 68 38.5l17 1h404z" />
<glyph unicode="&#xe69e;" glyph-name="export-data" data-tags="export-data" horiz-adv-x="1170" d="M1097 677q30 0 51.5-21.5t21.5-52.5v-658q0-30-21.5-51.5t-51.5-21.5h-1024q-30 0-51.5 21.5t-21.5 51.5v658q0 31 21.5 52.5t51.5 21.5h1024zM640 530h-110v-319l-165 141-72-83 256-219 8-5q15-10 32.5-8.5t31.5 13.5l256 219-72 83-165-141v319zM1024 896q30 0 51.5-21.5t21.5-51.5-21.5-51.5-51.5-21.5h-878q-19 0-36 9.5t-27 26.5-10 36.5 10 36.5 27 27 36 10h878z" />
<glyph unicode="&#xe69f;" glyph-name="more" data-tags="more" d="M416 864h160v-160h-160v160zM416 480h160v-160h-160v160zM416 96h160v-160h-160v160z" />
<glyph unicode="&#xe6a2;" glyph-name="company" data-tags="company" d="M570 612l406-80q7-1 12.5-6.5t6.5-12.5l1-5v-612q-1-8-6.5-15t-14.5-9h-405v740zM668 494v-524h230v478zM667 878q1-3 1-6v-977q0-9-7-16t-16-7h-592q-10 0-17.5 7t-7.5 18v823q0 8 5.5 15t13.5 9l591 151q9 3 18-2.5t11-14.5zM570 777l-444-114v-693h444v807zM399 640h87v-244h-97v244h10z" />
<glyph unicode="&#xe6a3;" glyph-name="icon_play" data-tags="icon_play" d="M512 896q104 0 199-40 92-39 163-110t110-163q40-95 40-199t-40-199q-39-92-110-163t-163-110q-95-40-199-40t-199 40q-92 39-163 110t-110 163q-40 95-40 199t40 199q39 92 110 163t163 110q95 40 199 40zM512 828q-121 0-224-61-100-59-159-159-61-103-61-224t61-224q59-100 159-159 103-61 224-61t224 61q100 59 159 159 61 103 61 224t-61 224q-59 100-159 159-103 61-224 61zM410 555l273-171-273-171v342z" />
<glyph unicode="&#xe6a6;" glyph-name="back" data-tags="ic_back" horiz-adv-x="1117" d="M931 427h-567l261 238-66 60-373-341 373-341 65 60-260 238h567v86z" />
</font>
</defs>
</svg>
